<svg id="Layer_3" data-name="Layer 3" xmlns="http://www.w3.org/2000/svg" xmlns:xlink="http://www.w3.org/1999/xlink" viewBox="0 0 5110.74 1341.67"><defs><style>.cls-1,.cls-10,.cls-11,.cls-12,.cls-13,.cls-14,.cls-15,.cls-16,.cls-17,.cls-18,.cls-19,.cls-2,.cls-20,.cls-21,.cls-22,.cls-23,.cls-24,.cls-25,.cls-26,.cls-27,.cls-28,.cls-29,.cls-3,.cls-30,.cls-31,.cls-32,.cls-33,.cls-34,.cls-35,.cls-36,.cls-37,.cls-38,.cls-39,.cls-4,.cls-40,.cls-41,.cls-42,.cls-5,.cls-6,.cls-7,.cls-8,.cls-9{fill:none;stroke-miterlimit:10;stroke-width:1.42px;}.cls-1{stroke:url(#linear-gradient);}.cls-2{stroke:url(#linear-gradient-2);}.cls-3{stroke:url(#linear-gradient-3);}.cls-4{stroke:url(#linear-gradient-4);}.cls-5{stroke:url(#linear-gradient-5);}.cls-6{stroke:url(#linear-gradient-6);}.cls-7{stroke:url(#linear-gradient-7);}.cls-8{stroke:url(#linear-gradient-8);}.cls-9{stroke:url(#linear-gradient-9);}.cls-10{stroke:url(#linear-gradient-10);}.cls-11{stroke:url(#linear-gradient-11);}.cls-12{stroke:url(#linear-gradient-12);}.cls-13{stroke:url(#linear-gradient-13);}.cls-14{stroke:url(#linear-gradient-14);}.cls-15{stroke:url(#linear-gradient-15);}.cls-16{stroke:url(#linear-gradient-16);}.cls-17{stroke:url(#linear-gradient-17);}.cls-18{stroke:url(#linear-gradient-18);}.cls-19{stroke:url(#linear-gradient-19);}.cls-20{stroke:url(#linear-gradient-20);}.cls-21{stroke:url(#linear-gradient-21);}.cls-22{stroke:url(#linear-gradient-22);}.cls-23{stroke:url(#linear-gradient-23);}.cls-24{stroke:url(#linear-gradient-24);}.cls-25{stroke:url(#linear-gradient-25);}.cls-26{stroke:url(#linear-gradient-26);}.cls-27{stroke:url(#linear-gradient-27);}.cls-28{stroke:url(#linear-gradient-28);}.cls-29{stroke:url(#linear-gradient-29);}.cls-30{stroke:url(#linear-gradient-30);}.cls-31{stroke:url(#linear-gradient-31);}.cls-32{stroke:url(#linear-gradient-32);}.cls-33{stroke:url(#linear-gradient-33);}.cls-34{stroke:url(#linear-gradient-34);}.cls-35{stroke:url(#linear-gradient-35);}.cls-36{stroke:url(#linear-gradient-36);}.cls-37{stroke:url(#linear-gradient-37);}.cls-38{stroke:url(#linear-gradient-38);}.cls-39{stroke:url(#linear-gradient-39);}.cls-40{stroke:url(#linear-gradient-40);}.cls-41{stroke:url(#linear-gradient-41);}.cls-42{stroke:url(#linear-gradient-42);}</style><linearGradient id="linear-gradient" x1="7.76" y1="1024.5" x2="5114.09" y2="1024.5" gradientUnits="userSpaceOnUse"><stop offset="0" stop-color="#71d09c" stop-opacity="0.1"/><stop offset="0.08" stop-color="#71d09c"/><stop offset="0.34" stop-color="#71d09c"/><stop offset="0.63" stop-color="#42c8a5"/><stop offset="0.91" stop-color="#526cd2"/><stop offset="1" stop-color="#5657dd" stop-opacity="0.1"/></linearGradient><linearGradient id="linear-gradient-2" x1="7.67" y1="1024.39" x2="5114.12" y2="1024.39" xlink:href="#linear-gradient"/><linearGradient id="linear-gradient-3" x1="7.59" y1="1024.32" x2="5114.14" y2="1024.32" xlink:href="#linear-gradient"/><linearGradient id="linear-gradient-4" x1="7.51" y1="1023.9" x2="5114.16" y2="1023.9" xlink:href="#linear-gradient"/><linearGradient id="linear-gradient-5" x1="7.42" y1="1023.81" x2="5114.19" y2="1023.81" xlink:href="#linear-gradient"/><linearGradient id="linear-gradient-6" x1="7.34" y1="1023.79" x2="5114.21" y2="1023.79" xlink:href="#linear-gradient"/><linearGradient id="linear-gradient-7" x1="7.25" y1="1023.86" x2="5114.23" y2="1023.86" xlink:href="#linear-gradient"/><linearGradient id="linear-gradient-8" x1="7.17" y1="1024.03" x2="5114.25" y2="1024.03" xlink:href="#linear-gradient"/><linearGradient id="linear-gradient-9" x1="7.09" y1="1024.32" x2="5114.28" y2="1024.32" xlink:href="#linear-gradient"/><linearGradient id="linear-gradient-10" x1="7" y1="1024.75" x2="5114.3" y2="1024.75" xlink:href="#linear-gradient"/><linearGradient id="linear-gradient-11" x1="6.92" y1="1025.36" x2="5114.32" y2="1025.36" xlink:href="#linear-gradient"/><linearGradient id="linear-gradient-12" x1="6.83" y1="1026.18" x2="5114.35" y2="1026.18" xlink:href="#linear-gradient"/><linearGradient id="linear-gradient-13" x1="6.75" y1="1026.97" x2="5114.37" y2="1026.97" xlink:href="#linear-gradient"/><linearGradient id="linear-gradient-14" x1="6.66" y1="1016.67" x2="5114.39" y2="1016.67" xlink:href="#linear-gradient"/><linearGradient id="linear-gradient-15" x1="6.58" y1="1006.85" x2="5114.41" y2="1006.85" xlink:href="#linear-gradient"/><linearGradient id="linear-gradient-16" x1="6.49" y1="999.01" x2="5114.43" y2="999.01" xlink:href="#linear-gradient"/><linearGradient id="linear-gradient-17" x1="6.41" y1="1000.58" x2="5114.46" y2="1000.58" xlink:href="#linear-gradient"/><linearGradient id="linear-gradient-18" x1="6.33" y1="1002.15" x2="5114.48" y2="1002.15" xlink:href="#linear-gradient"/><linearGradient id="linear-gradient-19" x1="6.24" y1="1003.72" x2="5114.5" y2="1003.72" xlink:href="#linear-gradient"/><linearGradient id="linear-gradient-20" x1="6.16" y1="1005.29" x2="5114.52" y2="1005.29" xlink:href="#linear-gradient"/><linearGradient id="linear-gradient-21" x1="6.07" y1="1006.85" x2="5114.54" y2="1006.85" xlink:href="#linear-gradient"/><linearGradient id="linear-gradient-22" x1="5.99" y1="1008.42" x2="5114.57" y2="1008.42" xlink:href="#linear-gradient"/><linearGradient id="linear-gradient-23" x1="5.9" y1="1009.99" x2="5114.59" y2="1009.99" xlink:href="#linear-gradient"/><linearGradient id="linear-gradient-24" x1="5.82" y1="1011.56" x2="5114.61" y2="1011.56" xlink:href="#linear-gradient"/><linearGradient id="linear-gradient-25" x1="5.74" y1="1013.13" x2="5114.63" y2="1013.13" xlink:href="#linear-gradient"/><linearGradient id="linear-gradient-26" x1="5.65" y1="1014.7" x2="5114.65" y2="1014.7" xlink:href="#linear-gradient"/><linearGradient id="linear-gradient-27" x1="5.57" y1="1016.26" x2="5114.67" y2="1016.26" xlink:href="#linear-gradient"/><linearGradient id="linear-gradient-28" x1="5.48" y1="1017.83" x2="5114.69" y2="1017.83" xlink:href="#linear-gradient"/><linearGradient id="linear-gradient-29" x1="5.4" y1="1019.4" x2="5114.71" y2="1019.4" xlink:href="#linear-gradient"/><linearGradient id="linear-gradient-30" x1="5.32" y1="1020.97" x2="5114.73" y2="1020.97" xlink:href="#linear-gradient"/><linearGradient id="linear-gradient-31" x1="5.23" y1="1022.54" x2="5114.75" y2="1022.54" xlink:href="#linear-gradient"/><linearGradient id="linear-gradient-32" x1="5.15" y1="1024.11" x2="5114.77" y2="1024.11" xlink:href="#linear-gradient"/><linearGradient id="linear-gradient-33" x1="5.07" y1="1025.68" x2="5114.79" y2="1025.68" xlink:href="#linear-gradient"/><linearGradient id="linear-gradient-34" x1="4.99" y1="1027.25" x2="5114.81" y2="1027.25" xlink:href="#linear-gradient"/><linearGradient id="linear-gradient-35" x1="4.9" y1="1028.83" x2="5114.83" y2="1028.83" xlink:href="#linear-gradient"/><linearGradient id="linear-gradient-36" x1="4.82" y1="1030.46" x2="5114.87" y2="1030.46" xlink:href="#linear-gradient"/><linearGradient id="linear-gradient-37" x1="4.74" y1="1032.13" x2="5114.9" y2="1032.13" xlink:href="#linear-gradient"/><linearGradient id="linear-gradient-38" x1="4.66" y1="1033.84" x2="5114.93" y2="1033.84" xlink:href="#linear-gradient"/><linearGradient id="linear-gradient-39" x1="4.58" y1="1035.57" x2="5114.96" y2="1035.57" xlink:href="#linear-gradient"/><linearGradient id="linear-gradient-40" x1="4.49" y1="1037.32" x2="5115" y2="1037.32" xlink:href="#linear-gradient"/><linearGradient id="linear-gradient-41" x1="4.41" y1="1039.09" x2="5115.03" y2="1039.09" xlink:href="#linear-gradient"/><linearGradient id="linear-gradient-42" x1="4.33" y1="1040.87" x2="5115.07" y2="1040.87" xlink:href="#linear-gradient"/></defs><title>Prjects</title><path class="cls-1" d="M7.9,735.3C1007,938,1017,240,1343,520c621.17,533.52,1071.74,753.2,1828.88,1004.87C4114,1838,3534.92,1006.81,5114,1215.72" transform="translate(-4.33 -370.04)"/><path class="cls-2" d="M7.83,726.4c988.54,216,998.86-468.14,1332.93-192.3,636.31,525.54,1079.55,726.1,1838,975.26C4110.1,1817.11,3561.65,1025.1,5114,1227.75" transform="translate(-4.33 -370.04)"/><path class="cls-3" d="M7.75,717.5c978,229.28,988.63-441,1330.76-169.31,651.44,517.56,1087.36,699,1847.13,945.65,920.58,302.36,402.75-450.45,1928.41-254.07" transform="translate(-4.33 -370.04)"/><path class="cls-4" d="M7.68,708.61C975.1,951.17,986.07,294.79,1336.27,562.29c666.57,509.59,1095.8,670,1856.25,916,910.57,294.66,422.6-416.64,1921.56-226.53" transform="translate(-4.33 -370.04)"/><path class="cls-5" d="M7.61,699.71C964.46,955.56,975.75,313.06,1334,576.39c681.7,501.61,1103.8,642.24,1865.37,886.42,900,288.57,442.46-382.83,1914.7-199" transform="translate(-4.33 -370.04)"/><path class="cls-6" d="M7.53,690.81C953.83,960,965.44,331.32,1331.78,590.49,2028.62,1084.12,2443.57,1205,3206.27,1447.3c889.47,282.53,462.31-349,1907.85-171.44" transform="translate(-4.33 -370.04)"/><path class="cls-7" d="M7.46,681.91C943.2,964.34,955.13,349.58,1329.54,604.59c712,485.65,1119.77,586.87,1883.62,827.2,878.9,276.53,482.17-315.21,1901-143.9" transform="translate(-4.33 -370.04)"/><path class="cls-8" d="M7.39,673c925.17,295.72,937.43-305.16,1319.91-54.33C2054.4,1096.35,2455,1177.9,3220,1416.27c868.31,270.57,502-281.41,1894.14-116.36" transform="translate(-4.33 -370.04)"/><path class="cls-9" d="M7.31,664.11c914.61,309,927.2-278,1317.74-31.33,742.24,469.69,1135.71,531.57,1901.86,768,857.7,264.65,521.88-247.6,1887.28-88.81" transform="translate(-4.33 -370.04)"/><path class="cls-10" d="M7.24,655.21c904.05,322.3,917-250.84,1315.56-8.34,757.37,461.71,1143.66,504,1911,738.36C4080.87,1644,3775.53,1171.45,5114.22,1324" transform="translate(-4.33 -370.04)"/><path class="cls-11" d="M7.17,646.32C900.66,981.9,913.89,422.64,1320.56,661c772.5,453.73,1151.6,476.37,1920.11,708.75,836.45,252.93,561.59-180,1873.58-33.73" transform="translate(-4.33 -370.04)"/><path class="cls-12" d="M7.09,637.42C890,986.29,903.58,440.9,1318.32,675.07c787.64,445.76,1159.53,448.8,1929.23,679.14C4073.34,1601.35,3829,1208,5114.27,1348" transform="translate(-4.33 -370.04)"/><path class="cls-13" d="M7,628.52c872.37,362.16,886.24-169.35,1309.05,60.65,802.77,437.78,1167.45,421.25,1938.35,649.53,815.13,241.37,601.3-112.36,1859.87,21.35" transform="translate(-4.33 -370.04)"/><path class="cls-14" d="M6.95,619.62c861.81,375.45,876-142.19,1306.88,83.65,817.9,429.8,1175.36,393.73,1947.47,619.92,804.45,235.66,621.16-78.56,1853,48.9" transform="translate(-4.33 -370.04)"/><path class="cls-15" d="M6.87,610.72c851.25,388.74,865.77-115,1304.71,106.64,833,421.82,1183.26,366.24,1956.6,590.31,793.75,230,641-44.75,1846.16,76.44" transform="translate(-4.33 -370.04)"/><path class="cls-16" d="M6.8,601.82c840.69,402,855.53-87.86,1302.54,129.64,848.17,413.84,1191.15,338.78,1965.72,560.69,783,224.34,660.87-10.94,1839.3,104" transform="translate(-4.33 -370.04)"/><path class="cls-17" d="M6.73,592.93C836.85,1008.24,852,532.23,1307.1,745.56c863.3,405.86,1199,311.35,1974.84,531.08,772.32,218.74,680.73,22.87,1832.45,131.52" transform="translate(-4.33 -370.04)"/><path class="cls-18" d="M6.65,584c819.56,428.61,835.05-33.54,1298.2,175.63,878.44,397.88,1206.89,283.95,1984,501.47,761.59,213.19,700.58,56.68,1825.6,159.06" transform="translate(-4.33 -370.04)"/><path class="cls-19" d="M6.58,575.13c809,441.9,824.81-6.38,1296,198.63,893.57,389.9,1214.75,256.58,1993.09,471.86,750.84,207.67,720.44,90.49,1818.74,186.61" transform="translate(-4.33 -370.04)"/><path class="cls-20" d="M6.51,566.23C805,1021.41,821.08,587,1300.37,787.85,2209.07,1169.78,2523,1017.1,3302.58,1230.1c740.08,202.2,740.29,124.29,1811.89,214.15" transform="translate(-4.33 -370.04)"/><path class="cls-21" d="M6.44,557.33C794.32,1025.8,810.77,605.28,1298.12,802,2222,1175.9,2528.54,1003.9,3309.46,1214.59c729.3,196.76,760.15,158.1,1805,241.69" transform="translate(-4.33 -370.04)"/><path class="cls-22" d="M6.36,548.43C783.68,1030.2,800.46,623.55,1295.88,816c939,366,1238.24,174.69,2020.46,383,718.52,191.37,780,191.91,1798.18,269.23" transform="translate(-4.33 -370.04)"/><path class="cls-23" d="M6.29,539.54C773,1034.59,790.15,641.81,1293.63,830.15c954.1,358,1246.05,147.47,2029.58,353.41,707.72,186,799.86,225.72,1791.32,296.77" transform="translate(-4.33 -370.04)"/><path class="cls-24" d="M6.22,530.64C762.41,1039,779.84,660.07,1291.39,844.24c969.24,350,1253.85,120.29,2038.7,323.8,696.91,180.7,819.72,259.53,1784.47,324.32" transform="translate(-4.33 -370.04)"/><path class="cls-25" d="M6.14,521.74c745.64,521.63,763.39,156.6,1283,336.6,984.37,342,1261.64,93.16,2047.82,294.19,686.09,175.43,839.57,293.34,1777.62,351.86" transform="translate(-4.33 -370.04)"/><path class="cls-26" d="M6.07,512.84C741.15,1047.76,759.22,696.6,1286.9,872.44c999.5,334.05,1269.41,66.08,2056.95,264.58,675.26,170.2,859.43,327.15,1770.76,379.4" transform="translate(-4.33 -370.04)"/><path class="cls-27" d="M6,503.94c724.52,548.21,742.91,210.92,1278.66,382.6,1014.64,326.08,1277.17,39,2066.07,235,664.42,165,879.28,361,1763.91,406.94" transform="translate(-4.33 -370.04)"/><path class="cls-28" d="M5.92,495c714,561.49,732.67,238.09,1276.49,405.59,1029.77,318.1,1284.92,12.06,2075.19,205.35,653.57,159.86,899.14,394.76,1757.05,434.49" transform="translate(-4.33 -370.04)"/><path class="cls-29" d="M5.85,486.14c703.39,574.78,722.43,265.25,1274.32,428.59,1044.9,310.12,1292.66-14.87,2084.31,175.74,642.72,154.75,919,428.57,1750.2,462" transform="translate(-4.33 -370.04)"/><path class="cls-30" d="M5.78,477.25C698.61,1065.32,718,769.66,1277.93,928.83,2338,1231,2578.31,887.09,3371.36,1075c631.85,149.68,938.85,462.38,1743.34,489.57" transform="translate(-4.33 -370.04)"/><path class="cls-31" d="M5.7,468.35c682.27,601.36,702,319.57,1270,474.58,1075.17,294.16,1308.1-68.55,2102.56,116.52,621,144.65,958.71,496.19,1736.49,517.11" transform="translate(-4.33 -370.04)"/><path class="cls-32" d="M5.63,459.45C677.34,1074.1,697.35,806.19,1273.44,957c1090.3,286.18,1315.8-95.29,2111.68,86.91,610.1,139.67,978.56,530,1729.63,544.65" transform="translate(-4.33 -370.04)"/><path class="cls-33" d="M5.56,450.55C666.71,1078.49,687,824.45,1271.2,971.12c1105.44,278.2,1323.49-122,2120.8,57.29,599.21,134.72,998.42,563.8,1722.78,572.2" transform="translate(-4.33 -370.04)"/><path class="cls-34" d="M5.48,441.65C656.07,1082.88,676.73,842.71,1269,985.22c1120.57,270.22,1331.16-148.56,2129.93,27.68,588.31,129.81,1018.27,597.61,1715.93,599.74" transform="translate(-4.33 -370.04)"/><path class="cls-35" d="M5.41,432.75c640,654.51,661,428.23,1261.3,566.56,1135.7,262.25,1338.83-175.09,2139.05-1.93,577.42,124.95,1038.13,631.42,1709.07,627.28" transform="translate(-4.33 -370.04)"/><path class="cls-36" d="M5.34,423.86c629.47,667.8,650.77,455.39,1259.13,589.56,1150.84,254.27,1346.47-201.53,2148.17-31.54,566.51,120.12,1058,665.23,1702.22,654.82" transform="translate(-4.33 -370.04)"/><path class="cls-37" d="M5.26,415c618.91,681.09,640.53,482.55,1257,612.56,1166,246.29,1354.11-227.88,2157.3-61.15,555.61,115.34,1077.84,699,1695.36,682.36" transform="translate(-4.33 -370.04)"/><path class="cls-38" d="M5.19,406.06C613.54,1100.44,635.48,915.77,1260,1041.61c1181.1,238.31,1361.73-254.14,2166.42-90.76,544.7,110.59,1097.7,732.85,1688.51,709.91" transform="translate(-4.33 -370.04)"/><path class="cls-39" d="M5.12,397.16C602.9,1104.83,625.17,934,1257.73,1055.71,2454,1286,2627.08,775.4,3433.27,935.33c533.79,105.89,1117.55,766.65,1681.65,737.45" transform="translate(-4.33 -370.04)"/><path class="cls-40" d="M5,388.26c587.22,721,609.81,564,1250.44,681.54,1211.37,222.35,1376.94-306.36,2184.66-150C3963,1021,4577.56,1720.28,5115,1684.81" transform="translate(-4.33 -370.04)"/><path class="cls-41" d="M5,379.36c576.66,734.25,599.58,591.2,1248.27,704.54,1226.5,214.37,1384.29-331,2193.79-179.6,511.81,97.42,1157.26,834.27,1667.95,792.53" transform="translate(-4.33 -370.04)"/><path class="cls-42" d="M4.9,370.46C571,1118,594.24,988.83,1251,1098c1241.64,206.39,1392.1-358.12,2202.91-209.21C3955,980.81,4631,1756.87,5115,1708.86" transform="translate(-4.33 -370.04)"/></svg>